<svg width="500" height="242" viewBox="0 0 500 242" fill="none" xmlns="http://www.w3.org/2000/svg">
<g clip-path="url(#clip0_562_15)">
<path d="M108.923 48.1812C112.464 51.2769 66.8577 113.981 66.4328 131.625C65.502 169.138 113.8 187.126 138.019 156.613C166.893 120.254 187.754 61.5557 216.121 23.4152C243.498 -13.4101 277.51 1.78541 314.538 12.0236L198.457 210.88C171.142 245.378 116.815 252.359 81.7496 225.064C67.3837 213.875 17.4268 146.537 8.48356 129.257C-2.82705 107.405 -4.87065 75.5574 15.1202 58.1766C17.4066 56.1937 29.8098 48.1812 31.3071 48.1812H108.923Z" fill="#2B2B31"/>
<path d="M258.107 156.755C285.443 180.671 308.429 176.544 328.278 147.306C353.813 109.671 373.358 62.102 399.601 25.4386C427.908 -14.098 460.424 1.64377 500.001 12.0034L386.753 205.64C361.562 243.598 288.822 259.724 265.048 213.146C263.57 210.253 258.107 195.948 258.107 193.944V156.755Z" fill="#2B2B31"/>
</g>
<defs>
<clipPath id="clip0_562_15">
<rect width="500.001" height="242" fill="white"/>
</clipPath>
</defs>
</svg>
