<svg width="500" height="500" viewBox="0 0 500 500" fill="none" xmlns="http://www.w3.org/2000/svg">
<g clip-path="url(#clip0_557_9)">
<rect width="500" height="500" fill="#2B2B31"/>
<path d="M153.019 200.184C155.458 202.316 124.047 245.503 123.755 257.655C123.114 283.491 156.378 295.88 173.059 274.865C192.945 249.823 207.313 209.396 226.85 183.127C245.705 157.764 269.131 168.23 294.633 175.281L214.685 312.241C195.872 336.001 158.454 340.809 134.304 322.009C124.41 314.303 90.0025 267.925 83.8429 256.024C76.0529 240.974 74.6454 219.039 88.4138 207.068C89.9885 205.703 98.5311 200.184 99.5623 200.184H153.019Z" fill="white"/>
<path d="M255.767 274.963C274.594 291.435 290.425 288.592 304.096 268.455C321.683 242.534 335.144 209.772 353.219 184.52C372.715 157.29 395.11 168.132 422.368 175.267L344.37 308.631C327.02 334.775 276.921 345.881 260.547 313.801C259.53 311.809 255.767 301.956 255.767 300.576V274.963Z" fill="white"/>
</g>
<defs>
<clipPath id="clip0_557_9">
<rect width="500" height="500" fill="white"/>
</clipPath>
</defs>
</svg>
