<svg width="272" height="132" viewBox="0 0 272 132" fill="none" xmlns="http://www.w3.org/2000/svg">
<path d="M59.2543 26.2105C61.1806 27.8946 36.3705 62.0056 36.1394 71.6038C35.6331 92.011 61.907 101.796 75.0825 85.1976C90.7897 65.4178 102.138 33.4862 117.57 12.7378C132.463 -7.2951 150.966 0.971235 171.109 6.54083L107.961 114.719C93.1012 133.486 63.5471 137.283 44.4718 122.435C36.6567 116.348 9.48019 79.7161 4.61505 70.316C-1.53792 58.4283 -2.64963 41.1031 8.22538 31.648C9.46919 30.5693 16.2165 26.2105 17.0311 26.2105H59.2543Z" fill="white"/>
<path d="M140.41 85.2747C155.281 98.2851 167.785 96.0396 178.583 80.1344C192.474 59.6611 203.107 33.7834 217.383 13.8386C232.782 -7.66932 250.47 0.894212 272 6.52985L210.393 111.868C196.689 132.517 157.119 141.29 144.186 115.951C143.382 114.377 140.41 106.595 140.41 105.506V85.2747Z" fill="white"/>
</svg>
